{"title":"Smashed 2012 BRRip XViD juggs","uid":8193963,"size":745892439,"categoryP":"video","categoryS":"movies","magnet":"?xt=urn:btih:cde2b58d688f48d7eded2fc1007bb7effcb2cd8f&amp;dn=Smashed+2012+BRRip+XViD+juggs&amp;tr=udp%3A%2F%2Ftracker.openbittorrent.com%3A80&amp;tr=udp%3A%2F%2Fopen.demonii.com%3A1337&amp;tr=udp%3A%2F%2Ftracker.coppersurfer.tk%3A6969&amp;tr=udp%3A%2F%2Fexodus.desync.com%3A6969","seeders":1,"leechers":0,"uploader":"juggs99","files":3,"time":1361886068,"description":" &lt;a href=&quot;http://www.imdb.com/title/tt2063781/&quot; rel=&quot;nofollow&quot; target=&quot;_NEW&quot;&gt;http://www.imdb.com/title/tt2063781/&lt;/a&gt;\n\n\nFormat                                   : AVI\nFormat/Info                              : Audio Video Interleave\nFile size                                : 701 MiB\nDuration                                 : 1h 21mn\nOverall bit rate                         : 1 209 Kbps\nWriting library                          : VirtualDub build 32842/release\n\nVideo\nID                                       : 0\nFormat                                   : MPEG-4 Visual\nFormat profile                           : Advanced Simple@L5\nFormat settings, BVOP                    : 4\nFormat settings, QPel                    : No\nFormat settings, GMC                     : No warppoints\nFormat settings, Matrix                  : Default (H.263)\nMuxing mode                              : Packed bitstream\nCodec ID                                 : XVID\nCodec ID/Hint                            : XviD\nDuration                                 : 1h 21mn\nBit rate                                 : 1 071 Kbps\nWidth                                    : 640 pixels\nHeight                                   : 352 pixels\nDisplay aspect ratio                     : 16:9\nFrame rate                               : 23.976 fps\nColor space                              : YUV\nChroma subsampling                       : 4:2:0\nBit depth                                : 8 bits\nScan type                                : Progressive\nCompression mode                         : Lossy\nBits/(Pixel*Frame)                       : 0.198\nStream size                              : 622 MiB (89%)\nWriting library                          : XviD 64\n\nAudio\nID                                       : 1\nFormat                                   : MPEG Audio\nFormat version                           : Version 1\nFormat profile                           : Layer 3\nCodec ID                                 : 55\nCodec ID/Hint                            : MP3\nDuration                                 : 1h 21mn\nBit rate mode                            : Constant\nBit rate                                 : 128 Kbps\nChannel(s)                               : 2 channels\nSampling rate                            : 44.1 KHz\nCompression mode                         : Lossy\nStream size                              : 74.3 MiB (11%)\nAlignment                                : Split accross interleaves\nInterleave, duration                     : 42 ms (1.00 video frame)\nInterleave, preload duration             : 500 ms\nWriting library                          : LAME3.99r\nEncoding settings                        : -m s -V 4 -q 3 -lowpass 17 -b 128\n\n\n\nPlot\nA married couple whose bond is built on a mutual love of alcohol gets their relationship put to the test when the wife decides to get sober.\n &lt;a href=&quot;\nhttp://www.shotpix.com/images/98051532885830978277.png&quot; rel=&quot;nofollow&quot; target=&quot;_NEW&quot;&gt;\nhttp://www.shotpix.com/images/98051532885830978277.png&lt;/a&gt; &lt;a href=&quot;\nhttp://www.shotpix.com/images/37442187237994673715.png&quot; rel=&quot;nofollow&quot; target=&quot;_NEW&quot;&gt;\nhttp://www.shotpix.com/images/37442187237994673715.png&lt;/a&gt; &lt;a href=&quot;\nhttp://www.shotpix.com/images/23212936178717387962.png&quot; rel=&quot;nofollow&quot; target=&quot;_NEW&quot;&gt;\nhttp://www.shotpix.com/images/23212936178717387962.png&lt;/a&gt;","torrent":{"xt":"urn:btih:cde2b58d688f48d7eded2fc1007bb7effcb2cd8f","amp;dn":"Smashed+2012+BRRip+XViD+juggs","amp;tr":["udp%3A%2F%2Ftracker.openbittorrent.com%3A80","udp%3A%2F%2Fopen.demonii.com%3A1337","udp%3A%2F%2Ftracker.coppersurfer.tk%3A6969","udp%3A%2F%2Fexodus.desync.com%3A6969"],"infoHash":"cde2b58d688f48d7eded2fc1007bb7effcb2cd8f","infoHashBuffer":{"type":"Buffer","data":[205,226,181,141,104,143,72,215,237,237,47,193,0,123,183,239,252,178,205,143]},"announce":[],"urlList":[]}}